PathFileType	4	(X/Y/Z)	E:\Qualisys_Data\Carbon_Farble_Plate\Data\Amateur_Runner\S1\T2\S1T2V11_c3d.trc
DataRate	CameraRate	NumFrames	NumMarkers	Units	OrigDataRate	OrigDataStartFrame	OrigNumFrames
200.000000	200.000000	5	39	mm	200.000000	39	312
Frame#	Time	LSHO			RSHO			LICST			RICST			LASIS			LHEEL			RASIS			LTROC			RTROC			SACR			LTH1			LSK4			LTH2			LTH3			RHM5			LSK2			LTH4			RTH1			LTOE			RTH2			RTH3			RTH4			LLEP			RLEP			LSK1			LSK3			RSK1			LHM5			RSK2			LFT1			RSK3			RSK4			LLME			RLME			RTOE			RHEEL			RFT1			RFT2			LFT2			
		X1	Y1	Z1	X2	Y2	Z2	X3	Y3	Z3	X4	Y4	Z4	X5	Y5	Z5	X6	Y6	Z6	X7	Y7	Z7	X8	Y8	Z8	X9	Y9	Z9	X10	Y10	Z10	X11	Y11	Z11	X12	Y12	Z12	X13	Y13	Z13	X14	Y14	Z14	X15	Y15	Z15	X16	Y16	Z16	X17	Y17	Z17	X18	Y18	Z18	X19	Y19	Z19	X20	Y20	Z20	X21	Y21	Z21	X22	Y22	Z22	X23	Y23	Z23	X24	Y24	Z24	X25	Y25	Z25	X26	Y26	Z26	X27	Y27	Z27	X28	Y28	Z28	X29	Y29	Z29	X30	Y30	Z30	X31	Y31	Z31	X32	Y32	Z32	X33	Y33	Z33	X34	Y34	Z34	X35	Y35	Z35	X36	Y36	Z36	X37	Y37	Z37	X38	Y38	Z38	X39	Y39	Z39	

40	0.195	-1586.496948242188	1494.2060546875	-517.0228271484375	-1582.673583984375	1448.855590820312	-187.4781494140625	-1635.757446289062	1006.563171386719	-516.3619995117188	-1627.80419921875	1035.413818359375	-214.0137634277344	-1587.89208984375	972.83203125	-487.7111511230469	-1883.450805664062	358.1558227539062	-423.0643615722656	-1588.793334960938	987.154541015625	-220.7864990234375	-1690.050170898438	881.5966796875	-526.3272094726562	-1698.144165039062	897.4984741210938	-189.3975982666016	-1749.923583984375	1035.639770507812	-356.8127746582031	-1511.799072265625	782.53125	-509.6374816894531	-1749.307861328125	430.0072326660156	-457.0637817382812	-1583.651123046875	744.1451416015625	-535.5299072265625	-1467.722045898438	688.3007202148438	-503.3733825683594	-1672.243530273438	62.14073944091797	-237.9205474853516	-1661.605712890625	472.7129821777344	-493.6995849609375	-1544.163208007812	652.3971557617188	-519.2830200195312	-1560.807373046875	770.7389526367188	-206.1814270019531	-1763.98095703125	134.8023834228516	-427.5513916015625	-1637.630004882812	762.5335693359375	-184.6647033691406	-1555.219848632812	669.659912109375	-218.9424285888672	-1634.436645507812	664.40185546875	-203.6242523193359	-1465.678466796875	528.013671875	-490.9013061523438	-1589.973999023438	498.3587341308594	-251.1578063964844	-1625.702880859375	395.6507873535156	-488.5135192871094	-1720.852294921875	358.7830810546875	-482.9464111328125	-1658.640258789062	318.5008239746094	-241.6800994873047	-1826.921020507812	174.0253601074219	-491.6949157714844	-1733.363891601562	351.8993835449219	-241.216552734375	-1903.353149414062	336.1312866210938	-396.4736022949219	-1699.5615234375	227.7249450683594	-257.8741760253906	-1771.663452148438	262.5829772949219	-267.8312377929688	-1835.559936523438	326.6613159179688	-475.0015258789062	-1785.453247070312	130.4437561035156	-257.2675170898438	-1609.369506835938	67.76417541503906	-316.164306640625	-1862.8896484375	108.1713180541992	-296.5798950195312	-1855.650634765625	73.78755950927734	-325.4267272949219	-1862.239868164062	78.17835998535156	-269.6744995117188	-1909.93994140625	337.6176147460938	-451.0514526367188
41	0.2	-1573.471801757812	1496.856689453125	-517.9451904296875	-1564.324829101562	1452.261962890625	-188.3031158447266	-1619.588256835938	1009.362365722656	-515.5740966796875	-1611.630737304688	1037.213134765625	-212.7344360351562	-1572.149291992188	975.5202026367188	-487.1119384765625	-1857.308959960938	349.4324035644531	-422.9099731445312	-1572.3837890625	988.7228393554688	-220.6346282958984	-1673.068481445312	884.9237060546875	-526.0233764648438	-1681.505615234375	899.93896484375	-189.2040710449219	-1734.687622070312	1038.68212890625	-356.1679382324219	-1494.028930664062	787.9215698242188	-508.7421569824219	-1724.248046875	426.2048950195312	-456.0804443359375	-1565.658325195312	748.4694213867188	-535.7382202148438	-1448.135498046875	694.4044189453125	-502.3796997070312	-1672.053955078125	62.41577529907227	-238.2551574707031	-1638.222778320312	472.3185729980469	-492.4314880371094	-1524.543701171875	657.4485473632812	-518.4808959960938	-1547.373413085938	771.64404296875	-207.4344177246094	-1728.186645507812	130.9703216552734	-426.5790710449219	-1623.953491210938	764.2688598632812	-184.8523254394531	-1543.786010742188	670.2393188476562	-220.5922393798828	-1621.922973632812	665.9868774414062	-203.8350524902344	-1444.194702148438	533.8046875	-489.8826293945312	-1584.300048828125	498.8202209472656	-252.3331604003906	-1601.875732421875	397.884765625	-488.9999084472656	-1693.6416015625	356.6777038574219	-482.6500244140625	-1655.938110351562	319.5467529296875	-242.3601837158203	-1792.335327148438	167.4158172607422	-491.1748962402344	-1729.272827148438	353.7703857421875	-241.4602661132812	-1876.074096679688	326.8604431152344	-396.5619812011719	-1697.495239257812	228.7982177734375	-258.6370544433594	-1769.704467773438	264.7299194335938	-268.3446350097656	-1807.277587890625	320.6660461425781	-475.0128784179688	-1784.093994140625	132.4711303710938	-256.8929748535156	-1609.1064453125	67.38863372802734	-316.4120178222656	-1861.702880859375	109.0167999267578	-295.7539672851562	-1855.689697265625	75.54173278808594	-325.5971984863281	-1862.108276367188	79.62893676757812	-270.0721740722656	-1882.269409179688	327.0095825195312	-450.7938232421875
42	0.205	-1560.108764648438	1500.086669921875	-518.5150756835938	-1545.650268554688	1455.748046875	-189.3255767822266	-1603.709838867188	1014.674499511719	-512.28466796875	-1594.526245117188	1039.277587890625	-212.6632843017578	-1556.429321289062	978.6204833984376	-486.8578796386719	-1830.3271484375	340.05126953125	-422.4493103027344	-1555.252197265625	990.1102294921876	-220.1611938476562	-1655.638061523438	888.6673583984375	-526.3093872070312	-1666.315063476562	902.3524780273438	-189.3151397705078	-1717.231323242188	1041.278198242188	-355.1855773925781	-1476.392578125	793.4574584960938	-507.9460754394531	-1698.798828125	422.1270141601562	-455.7130737304688	-1547.73046875	753.394287109375	-535.343017578125	-1429.604858398438	700.7633056640625	-501.0718383789062	-1671.5498046875	62.84838485717773	-239.0150756835938	-1614.862915039062	471.4439392089844	-491.4352722167969	-1504.740600585938	662.5286865234375	-517.4270629882812	-1534.26123046875	772.4050903320312	-208.5426483154297	-1691.8115234375	127.3440628051758	-426.23876953125	-1610.550170898438	766.3868408203125	-185.3052673339844	-1531.745361328125	671.0849609375	-222.265869140625	-1611.321655273438	668.1306762695312	-204.4066162109375	-1423.108154296875	539.7079467773438	-488.9322204589844	-1578.5517578125	499.3777160644531	-253.5325927734375	-1575.523803710938	398.2507934570312	-488.050537109375	-1667.429931640625	354.8616027832031	-482.188720703125	-1653.126953125	321.0536804199219	-243.6132354736328	-1757.392456054688	161.0365447998047	-490.7833251953125	-1725.952880859375	356.2140502929688	-241.9948120117188	-1848.284545898438	316.167236328125	-396.6179504394531	-1695.07275390625	231.0424041748047	-258.9596252441406	-1766.958740234375	267.3124694824219	-268.5105895996094	-1778.812744140625	313.2963562011719	-474.5987854003906	-1783.262451171875	134.9801635742188	-256.8431701660156	-1609.101684570312	66.75248718261719	-316.3844299316406	-1861.434204101562	110.3014068603516	-295.9963073730469	-1852.954711914062	75.9292221069336	-324.30908203125	-1861.443359375	81.14627075195312	-270.2593078613281	-1854.164306640625	316.3336486816406	-450.288818359375
43	0.21	-1547.113891601562	1503.05810546875	-518.8136596679688	-1527.457763671875	1459.64013671875	-190.5520629882812	-1586.745361328125	1018.317932128906	-511.7299499511719	-1578.531616210938	1041.065185546875	-211.8968200683594	-1538.479370117188	982.353759765625	-485.0667114257812	-1802.998046875	330.4496765136719	-422.3316040039062	-1538.948364257812	992.2562255859376	-219.4572906494141	-1639.227905273438	892.7615356445312	-526.9002075195312	-1651.39208984375	905.1168823242188	-189.8447113037109	-1701.630493164062	1044.555786132812	-355.2888793945312	-1458.352294921875	798.9805908203125	-506.8357849121094	-1675.127197265625	418.5938720703125	-454.7913818359375	-1528.804443359375	757.7045288085938	-534.967041015625	-1410.410400390625	706.9378662109375	-500.2437438964844	-1670.852905273438	63.12223434448242	-239.2826385498047	-1591.889770507812	470.39501953125	-490.0421142578125	-1485.226806640625	667.8453369140625	-516.98388671875	-1520.80078125	773.32568359375	-210.5307464599609	-1654.521484375	123.8685531616211	-425.8647766113281	-1597.134033203125	768.479736328125	-186.0917663574219	-1521.004028320312	671.6296997070312	-224.0169982910156	-1599.841186523438	670.57421875	-204.7126617431641	-1401.668823242188	545.9093627929688	-487.4427185058594	-1573.189331054688	500.615966796875	-254.4760131835938	-1549.681030273438	398.9443664550781	-487.3439025878906	-1639.590698242188	352.0713195800781	-481.3089294433594	-1649.651977539062	323.3971252441406	-243.2871398925781	-1722.292846679688	154.6429901123047	-490.067138671875	-1722.747436523438	359.3108825683594	-242.9029541015625	-1818.556518554688	305.0885620117188	-397.0844116210938	-1692.229736328125	233.5771789550781	-258.9898376464844	-1764.0	270.3815612792969	-269.1398315429688	-1749.89013671875	305.2841796875	-473.6924743652344	-1780.851684570312	138.1629180908203	-256.7898864746094	-1607.710693359375	67.00358581542969	-316.5844116210938	-1860.580932617188	112.7877731323242	-297.4314270019531	-1853.826538085938	78.14065551757812	-325.3855285644531	-1860.19970703125	84.83454132080078	-270.6637573242188	-1824.442626953125	305.0157775878906	-448.7189025878906
44	0.215	-1534.692626953125	1506.349853515625	-519.8948364257812	-1509.411743164062	1463.654174804688	-191.6448822021484	-1570.464111328125	1022.097534179688	-511.2425231933594	-1560.465942382812	1043.576904296875	-211.0311431884766	-1522.162109375	985.9566040039062	-485.288330078125	-1775.794067382812	320.7220764160156	-422.2244873046875	-1521.87158203125	994.9265747070312	-219.3439025878906	-1620.807006835938	896.7361450195312	-527.2786254882812	-1632.866333007812	907.7080688476562	-189.1492767333984	-1683.80517578125	1047.29296875	-354.59912109375	-1440.987670898438	804.7335205078125	-505.857421875	-1650.776245117188	413.6915588378906	-454.5463562011719	-1510.49267578125	762.9041748046875	-535.1239013671875	-1391.657836914062	713.165771484375	-498.6518249511719	-1670.878051757812	63.48796463012695	-239.4994812011719	-1569.800170898438	469.5750122070312	-489.1234436035156	-1465.756469726562	672.8671875	-516.6781005859375	-1506.88427734375	774.4729614257812	-212.1395568847656	-1617.87451171875	120.8187637329102	-425.4264221191406	-1583.126831054688	771.5756225585938	-186.4689483642578	-1510.281860351562	672.8607788085938	-225.6010437011719	-1588.829223632812	673.3652954101562	-205.298095703125	-1381.900146484375	551.14990234375	-487.2769775390625	-1568.413818359375	502.1809387207031	-254.5843048095703	-1524.477416992188	399.5093994140625	-486.7014465332031	-1611.310424804688	348.0303649902344	-481.0052185058594	-1646.5205078125	326.0714416503906	-243.5428009033203	-1686.385620117188	148.0523223876953	-489.116455078125	-1719.852294921875	362.6717224121094	-243.5829925537109	-1790.835571289062	294.5888061523438	-396.4273986816406	-1689.69970703125	236.8635101318359	-259.1906433105469	-1761.481811523438	274.1716918945312	-269.7483215332031	-1720.40966796875	297.8672180175781	-472.8949584960938	-1778.414184570312	141.7341918945312	-257.1213073730469	-1607.537231445312	66.50470733642578	-317.0610656738281	-1858.921508789062	117.788330078125	-298.0189208984375	-1852.649780273438	83.48567962646484	-325.6930236816406	-1858.983154296875	89.20449829101562	-270.895263671875	-1796.25390625	294.2922668457031	-448.5519104003906
